<svg xmlns="http://www.w3.org/2000/svg" xmlns:xlink="http://www.w3.org/1999/xlink" xmlns:a="http://ns.adobe.com/AdobeSVGViewerExtensions/3.0/" version="1.1" x="0px" y="0px" width="100px" height="100px" viewBox="5.783 8.739 100.0 135.0" enable-background="new 0.783 18.739 100 100" xml:space="preserve">
<defs>
</defs>
<polygon display="none" points="76.367,17.821 55.743,0 55.743,35.62 76.367,17.821 "/>
<polygon display="none" points="8.934,38.697 0,38.697 0,55.971 8.934,55.971 8.934,38.697 "/>
<polygon display="none" points="30.333,25.866 21.376,25.866 21.376,55.971 30.333,55.971 30.333,25.866 "/>
<polygon display="none" points="41.021,19.462 32.064,19.462 32.064,55.971 41.021,55.971 41.021,19.462 "/>
<polygon display="none" points="19.645,32.292 10.711,32.292 10.711,55.971 19.645,55.971 19.645,32.292 "/>
<polygon display="none" points="58.158,21.878 58.158,13.059 42.753,13.059 42.753,55.971 51.709,55.971 51.709,21.878   58.158,21.878 "/>
<polygon display="none" points="32.726,12.739 32.726,10.164 27.051,11.076 22.995,5.288 16.978,5.288 12.694,12.739 11.531,19.166   14.061,19.622 15.109,13.674 17.183,10.096 17.183,27.325 13.97,30.538 15.793,32.361 19.735,28.396 19.735,20.396 25.593,20.396   25.593,26.709 28.145,26.709 28.145,17.821 22.767,17.821 22.767,9.412 25.912,13.833 32.726,12.739 "/>
<path display="none" d="M35.537,141.753h0.014v0.015h-0.014v22.257h5.702v10.473h11.291v-10.473H75.38v10.473h11.291v-10.473h5.73  v-52.052H35.537V141.753L35.537,141.753z M87.688,114.668c1.736,0,2.611,0.848,2.611,2.527v23.33H37.611v-23.33  c0-1.68,0.875-2.527,2.611-2.527H87.688L87.688,114.668z M40.223,161.33c-1.736,0-2.611-0.847-2.611-2.526v-15.808h52.688v15.808  c0,1.68-0.875,2.526-2.611,2.526H40.223L40.223,161.33z"/>
<path display="none" d="M97.75,21.184c0,0.88,0.319,1.64,0.999,2.239c0.52,0.48,1.16,0.76,1.84,0.879h4.397l0.8,0.801l6.637-8.757  L98.27,4.311L84.155,36.138h6.678l6.917-15.114C97.75,21.064,97.75,21.144,97.75,21.184L97.75,21.184z"/>
<path display="none" d="M94.472,38.097c-0.121-0.119-0.28-0.24-0.44-0.359H68.202c-0.12,0-0.199,0-0.279-0.041l-0.041-0.039  c-0.119-0.041-0.199-0.121-0.279-0.201L52.969,20.705c-0.76,3.279-0.399,6.598,0.999,9.955c1.68,3.879,4.318,6.678,7.957,8.396  c1.479,0.68,2.919,1.119,4.358,1.32c0,0.08,0,0.16,0,0.24v0.238c0,1,0.36,1.84,1.079,2.52c0.72,0.68,1.6,1,2.639,1h21.831  c1.04,0,1.919-0.32,2.64-1c0.719-0.68,1.079-1.52,1.079-2.52v-0.238C95.551,39.617,95.19,38.777,94.472,38.097L94.472,38.097z"/>
<path display="none" d="M70.521,29.781l-1.359,1.439v4.918h14.394V31.46l-4.198,0.799c0.04-0.16,0.12-0.32,0.16-0.479l-2.879-2.721  L70.521,29.781L70.521,29.781z M74.319,29.9c0.36,0,0.68,0.08,0.92,0.201c0.279,0.16,0.4,0.359,0.4,0.559  c0,0.201-0.121,0.4-0.4,0.52c-0.24,0.16-0.56,0.24-0.92,0.24c-0.359,0-0.68-0.08-0.959-0.24C73.12,31.06,73,30.861,73,30.66  c0-0.199,0.12-0.398,0.36-0.559C73.64,29.98,73.96,29.9,74.319,29.9L74.319,29.9z M72.8,33.179c0.2-0.199,0.48-0.32,0.76-0.32  c0.28,0,0.521,0.121,0.721,0.32c0.199,0.199,0.319,0.48,0.319,0.76s-0.12,0.561-0.319,0.76c-0.2,0.199-0.44,0.32-0.721,0.32  c-0.279,0-0.56-0.121-0.76-0.32c-0.199-0.199-0.279-0.48-0.279-0.76S72.601,33.378,72.8,33.179L72.8,33.179z M78.838,33.699  c0.2-0.199,0.479-0.279,0.8-0.279c0.319,0,0.6,0.08,0.799,0.279c0.2,0.199,0.32,0.48,0.32,0.76s-0.12,0.52-0.32,0.721  c-0.199,0.199-0.479,0.318-0.799,0.318c-0.32,0-0.6-0.119-0.8-0.318c-0.2-0.201-0.32-0.441-0.32-0.721S78.638,33.898,78.838,33.699  L78.838,33.699z"/>
<path d="M76.465,29.078c-3.991,0-7.404,1.38-10.236,4.211c-2.831,2.832-4.21,6.243-4.21,10.237c0,0.218,0,0.436,0,0.654  c0.145,3.702,1.525,6.823,4.21,9.51c0.727,0.726,1.453,1.38,2.251,1.888c1.38,0.943,2.832,1.597,4.356,1.961  c1.161,0.291,2.395,0.435,3.629,0.435c2.543,0,4.792-0.582,6.826-1.669c0.363-0.219,0.725-0.509,1.088-0.727  c0.799-0.508,1.525-1.162,2.252-1.888c2.687-2.687,4.138-5.808,4.283-9.51c0-0.219,0-0.437,0-0.654  c0-3.994-1.451-7.405-4.283-10.237C83.799,30.458,80.459,29.078,76.465,29.078L76.465,29.078z"/>
<path d="M71.021,61.531l-6.969,15.536l-7.915-7.841l-8.639,8.132l20.256,20.038c0.146-0.29,0.291-0.578,0.436-0.871l11.326-25.12  l2.324,0.652l-12.706,28.17v16.844h21.78v-55.54H71.021L71.021,61.531z"/>
<polygon points="52.291,117.145 52.291,108.651 5.316,108.651 5.316,117.145 52.291,117.145 "/>
<polygon points="40.019,106.327 40.019,102.695 17.514,102.695 17.514,106.327 40.019,106.327 "/>
<path d="M56.137,71.333v-2.323H13.811c-0.072,0.291-0.146,0.58-0.146,0.942c0,0.51,0.074,0.945,0.219,1.381  c0.363,1.088,1.089,2.033,2.323,2.831c1.67,1.162,3.775,1.743,6.171,1.743s4.501-0.581,6.171-1.743  c1.234-0.798,1.96-1.743,2.324-2.831H56.137L56.137,71.333z"/>
<path d="M49.821,84.472c0-0.216,0-0.508,0-0.726H4.808c0,0.218,0,0.51,0,0.726c0,4.866,2.179,9.076,6.607,12.489  c1.379,1.09,2.832,1.961,4.355,2.758c0.653,0.293,1.38,0.581,2.106,0.871c0.654,0.218,1.234,0.438,1.888,0.655  c-0.944-1.382-1.452-2.904-1.452-4.577c0-2.612,1.162-4.861,3.558-6.748c0,0,0,0,0.072-0.074c0.291-0.219,0.58-0.438,0.943-0.653  c-0.219,0.216-0.363,0.508-0.436,0.728c-0.653,1.233-0.943,2.539-0.943,3.991c0,2.323,0.799,4.284,2.396,5.952  c1.161,1.234,2.54,1.961,4.065,2.323c0.072,0,0.217,0,0.361,0c-0.652-0.508-1.16-1.016-1.523-1.597  c-0.945-1.234-1.379-2.539-1.379-3.992c0-2.468,1.234-4.573,3.775-6.315c0.217-0.147,0.364-0.292,0.581-0.362  c1.524-0.945,3.267-1.526,5.155-1.891c-0.582,0.364-1.089,0.727-1.597,1.163c-0.219,0.216-0.436,0.508-0.653,0.728  c-1.38,1.523-2.033,3.338-2.033,5.299c0,2.032,0.726,3.848,2.105,5.371c0.218,0.218,0.363,0.363,0.582,0.581  c0.145,0.074,0.291,0.22,0.363,0.364c0.508-0.145,1.089-0.29,1.669-0.438c0.217-0.07,0.363-0.145,0.581-0.216  c0.437-0.292,0.872-0.655,1.234-1.09c0.291-0.292,0.582-0.581,0.801-0.944c0.871-1.305,1.306-2.831,1.306-4.5  c0-0.726-0.072-1.381-0.218-2.033c0.943,1.233,1.452,2.612,1.452,4.283c0,0.871-0.146,1.669-0.436,2.469  c1.089-0.652,2.105-1.308,3.121-2.105c2.251-1.742,3.921-3.631,5.01-5.662c0.073-0.146,0.073-0.293,0.146-0.363  c0.145-0.363,0.291-0.653,0.436-1.016C49.458,88.249,49.821,86.433,49.821,84.472L49.821,84.472z"/>
<path d="M25.862,83.167c-0.435,0.071-0.872,0.219-1.307,0.289l-0.073,0.074c-0.072,0-0.072,0-0.144,0h0.072  c3.122-0.363,5.807-1.526,8.131-3.34c2.977-2.252,4.5-5.01,4.5-8.278c0-3.267-1.523-6.026-4.5-8.276  c-2.976-2.324-6.534-3.486-10.746-3.486c-4.139,0-7.769,1.162-10.816,3.486c-0.073,0.072-0.073,0.072-0.146,0.145  c2.542-1.524,5.809-2.25,9.802-2.178c3.992,0.072,7.333,1.088,10.018,3.122c2.687,1.96,4.065,4.501,3.993,7.478  c-0.073,2.978-1.307,5.518-3.848,7.695C28.839,81.57,27.242,82.66,25.862,83.167L25.862,83.167z"/>
<path d="M11.705,80.043c1.96,0.218,2.905-0.578,2.905-2.322c-0.075-1.743-0.945-3.921-2.76-6.534  c0.146,1.597-0.291,3.413-1.38,5.445C9.383,78.665,9.818,79.828,11.705,80.043L11.705,80.043z"/>
<path d="M95.488,30.458c1.09-1.089,1.669-2.396,1.669-3.921s-0.579-2.903-1.669-3.993c-1.089-1.089-2.396-1.597-3.921-1.597  c-1.525,0-2.903,0.508-3.994,1.597c-1.088,1.09-1.597,2.468-1.597,3.993s0.509,2.832,1.597,3.921  c1.091,1.087,2.469,1.669,3.994,1.669C93.092,32.127,94.399,31.545,95.488,30.458L95.488,30.458z"/>
<path fill="none" stroke="#000000" stroke-width="0.05" stroke-linecap="round" stroke-linejoin="round" stroke-miterlimit="10" d="  M97.157,26.537c0-1.525-0.579-2.903-1.669-3.993c-1.089-1.089-2.396-1.597-3.921-1.597c-1.525,0-2.903,0.508-3.994,1.597  c-1.088,1.09-1.597,2.468-1.597,3.993s0.509,2.832,1.597,3.921c1.091,1.087,2.469,1.669,3.994,1.669  c1.524,0,2.832-0.582,3.921-1.669C96.578,29.369,97.157,28.062,97.157,26.537L97.157,26.537z"/>
<text x="0.783" y="136.239" font-size="5.0" font-weight="bold" font-family="Helvetica Neue, Helvetica, Arial-Unicode, Arial, Sans-serif" fill="#000000">Created by N.K.Narasimhan</text><text x="0.783" y="141.239" font-size="5.0" font-weight="bold" font-family="Helvetica Neue, Helvetica, Arial-Unicode, Arial, Sans-serif" fill="#000000">from the Noun Project</text></svg>