<svg xmlns="http://www.w3.org/2000/svg" xmlns:xlink="http://www.w3.org/1999/xlink" version="1.1" id="Layer_1" x="0px" y="0px" width="100px" height="74.128px" viewBox="5.0 -7.4128 100.0 100.0728" enable-background="new 0 0 100 74.128" xml:space="preserve">
<g>
	<path fill="#000000" d="M95.35,0H4.65C2.088,0,0,2.086,0,4.65v64.828c0,2.564,2.088,4.65,4.65,4.65h90.7   c2.564,0,4.65-2.086,4.65-4.65V4.65C100,2.086,97.915,0,95.35,0z M95.343,69.478H4.65V4.65h90.7L95.343,69.478z"/>
	<path fill="#000000" d="M79.942,28.779h4.654c2.562,0,4.649-2.087,4.649-4.651c0-2.565-2.088-4.651-4.649-4.651h-4.654   c-2.562,0-4.65,2.086-4.65,4.651C75.292,26.692,77.379,28.779,79.942,28.779z"/>
	<path fill="#000000" d="M82.267,31.104c-2.563,0-4.649,2.085-4.649,4.651c0,2.566,2.086,4.652,4.649,4.652   c2.564,0,4.652-2.086,4.652-4.652C86.919,33.189,84.832,31.104,82.267,31.104z"/>
	<path fill="#000000" d="M82.267,42.733c-2.563,0-4.649,2.084-4.649,4.65c0,2.564,2.086,4.65,4.649,4.65   c2.564,0,4.652-2.086,4.652-4.65C86.919,44.817,84.832,42.733,82.267,42.733z"/>
	<path fill="#000000" d="M13.955,59.304h52.906c2.564,0,4.652-2.086,4.652-4.652V20.639c0-2.565-2.088-4.65-4.652-4.65H13.955   c-2.566,0-4.654,2.085-4.654,4.65v34.013C9.3,57.218,11.388,59.304,13.955,59.304z M46.509,52.034H34.883   c-4.321,0-7.933-2.975-8.972-6.977h29.572C54.445,49.06,50.833,52.034,46.509,52.034z M13.955,20.639h52.906l-0.008,34.013H53.728   c3.393-2.064,5.843-5.529,6.527-9.594l0.209-4.65H20.931l0.209,4.65c0.685,4.064,3.135,7.529,6.527,9.594H13.955V20.639z"/>
	<path fill="#000000" d="M28.782,35.565c-0.908,0.908-0.908,2.379,0,3.287c0.455,0.455,1.049,0.684,1.643,0.684   c0.597,0,1.193-0.229,1.646-0.684c2.971-2.971,2.752-6.734-0.582-10.07c-0.371-0.372-0.99-1.088-0.954-1.706   c0.031-0.533,0.535-1.048,0.716-1.192c1.011-0.767,1.222-2.207,0.463-3.232c-0.756-1.037-2.221-1.254-3.249-0.494   c-0.242,0.179-2.36,1.814-2.566,4.552c-0.101,1.298,0.222,3.28,2.303,5.36C30.237,34.108,29.462,34.884,28.782,35.565z"/>
	<path fill="#000000" d="M38.666,35.565c-0.908,0.908-0.908,2.379,0,3.287c0.453,0.455,1.049,0.684,1.646,0.684   c0.594,0,1.188-0.229,1.641-0.684c2.973-2.971,2.756-6.734-0.582-10.07c-0.369-0.372-0.988-1.088-0.952-1.706   c0.032-0.533,0.537-1.048,0.714-1.192c1.011-0.767,1.222-2.207,0.468-3.232c-0.761-1.037-2.223-1.254-3.251-0.494   c-0.245,0.179-2.362,1.814-2.566,4.552c-0.099,1.298,0.219,3.28,2.301,5.36C40.122,34.108,39.346,34.884,38.666,35.565z"/>
	<path fill="#000000" d="M48.549,35.565c-0.908,0.908-0.908,2.379,0,3.287c0.455,0.455,1.049,0.684,1.644,0.684   c0.597,0,1.19-0.229,1.646-0.684c2.969-2.971,2.752-6.734-0.582-10.07c-0.37-0.372-0.992-1.088-0.954-1.706   c0.031-0.533,0.535-1.048,0.717-1.192c1.011-0.767,1.222-2.207,0.463-3.232c-0.756-1.037-2.219-1.254-3.249-0.494   c-0.242,0.179-2.361,1.814-2.566,4.552c-0.101,1.298,0.221,3.28,2.301,5.36C50.005,34.108,49.23,34.884,48.549,35.565z"/>
</g>
<text x="0.0" y="87.1004" font-size="3.7064" font-weight="bold" font-family="Helvetica Neue, Helvetica, Arial-Unicode, Arial, Sans-serif" fill="#000000">Created by Hedie Assadi Joulaee</text><text x="0.0" y="90.8068" font-size="3.7064" font-weight="bold" font-family="Helvetica Neue, Helvetica, Arial-Unicode, Arial, Sans-serif" fill="#000000">from the Noun Project</text></svg>